<?xml version="1.0" encoding="UTF-8"?>
<!-- Generator: visioncortex VTracer 0.6.4 -->
<svg version="1.1" xmlns="http://www.w3.org/2000/svg" width="2000" height="1125">
<path d="M0 0 C660 0 1320 0 2000 0 C2000 371.25 2000 742.5 2000 1125 C1340 1125 680 1125 0 1125 C0 753.75 0 382.5 0 0 Z " fill="#B1BDED" transform="translate(0,0)"/>
<path d="M0 0 C3.49854867 6.32748265 5.31797534 12.41397139 6.9375 19.4375 C8.59479794 26.34967046 10.28790688 33.20464968 12.375 40 C15.29307839 49.53118109 17.60443503 59.22471285 19.97021484 68.90429688 C21.87149911 76.6560757 23.9054241 84.35737691 26.06257629 92.04193115 C28.54350862 100.89602 30.86558768 109.79063673 33.1875 118.6875 C33.66492505 120.51197143 34.14238341 122.33643414 34.61987305 124.16088867 C37.01452998 133.32208261 39.38795349 142.48839546 41.7265625 151.6640625 C41.94387527 152.51665649 42.16118805 153.36925049 42.38508606 154.24768066 C43.23897273 157.5987135 44.09277519 160.94976774 44.94625854 164.30090332 C47.46916807 174.19469513 50.08013808 184.04617354 52.95654297 193.84423828 C55.07193447 201.09722361 56.88548682 208.41508001 58.69165039 215.75024414 C60.43765191 222.81654012 62.27835098 229.85112055 64.1875 236.875 C68.57495132 253.03204311 72.79762887 269.23197955 77.02346802 285.43190002 C78.25398748 290.14818993 79.48872848 294.86332089 80.7305603 299.5766449 C81.55204301 302.69627325 82.36934697 305.81699703 83.1875 308.9375 C83.47882813 310.03763428 83.77015625 311.13776855 84.0703125 312.27124023 C84.32941406 313.26325439 84.58851562 314.25526855 84.85546875 315.27734375 C85.07871826 316.12546631 85.30196777 316.97358887 85.53198242 317.84741211 C86 320 86 320 86 323 C83.69 323.99 81.38 324.98 79 326 C80.65 327.32 82.3 328.64 84 330 C82.50441868 335.02289577 79.50108277 337.96844981 75.9375 341.625 C71.10410877 346.69776678 66.55831302 351.88331299 62.17578125 357.35546875 C59.869683 360.15839248 57.45848469 362.83003275 55 365.5 C51.72581577 369.05670244 48.59357567 372.67161811 45.5625 376.4375 C41.90428985 380.97316443 38.05257035 385.2570117 34.08618164 389.51928711 C31.09573 392.75193975 28.26220993 396.06696766 25.5 399.5 C22.30066087 403.47632149 18.97390622 407.26643534 15.5 411 C11.32619422 415.49110424 7.37818748 420.11415362 3.5390625 424.89453125 C0.66494234 428.43791119 -2.30918327 431.89369691 -5.28515625 435.3515625 C-5.83691528 435.99391846 -6.38867432 436.63627441 -6.95715332 437.2980957 C-8.30408185 438.8659876 -9.65194426 440.43307716 -11 442 C75.23170044 442.74263863 161.46464948 443.12354909 271.19469261 443.48457575 C275.94398898 443.50001239 280.69328509 443.51552562 285.44258118 443.53104782 C339.64672132 443.70812643 393.85088349 443.878151 448.05505019 444.04687452 C456.41251401 444.07289021 464.76997774 444.09893665 473.12744141 444.125 C474.36559122 444.12886028 474.36559122 444.12886028 475.62875415 444.13279855 C494.65447827 444.19212676 513.68020041 444.25201191 532.70591736 444.31359863 C533.92075906 444.31753088 533.92075906 444.31753088 535.16014301 444.32154256 C543.26800294 444.34779939 551.37586255 444.37415417 559.4837217 444.40064922 C576.50679566 444.45625961 593.52987196 444.51043605 610.55296158 444.56104386 C622.9579116 444.59795188 635.36285287 444.6371629 647.76778942 444.6783514 C654.3905978 444.70028 661.01340452 444.72139025 667.63622475 444.73950195 C728.42652091 444.9105661 789.21033643 445.50976078 850 446 C850 571.07 850 696.14 850 825 C190 825 -470 825 -1150 825 C-1150 699.93 -1150 574.86 -1150 446 C-1047.57468606 445.0302046 -1047.57468606 445.0302046 -1012.56137848 444.71173668 C-1011.35979882 444.70080663 -1010.15821917 444.68987659 -1008.920228 444.67861533 C-1007.68327151 444.66736758 -1006.44631502 444.65611984 -1005.171875 444.64453125 C-1003.22843153 444.62685145 -1003.22843153 444.62685145 -1001.24572659 444.60881448 C-983.70074588 444.44922252 -966.15575867 444.29035281 -948.61076713 444.13195711 C-940.29988751 444.05692489 -931.98900857 443.98181861 -923.6781311 443.90654755 C-877.85491525 443.49155702 -832.03165567 443.08206095 -786.20829487 442.68336773 C-782.26944785 442.64908337 -778.33060095 442.61478449 -774.39175415 442.58047485 C-773.41859563 442.57200018 -772.44543712 442.5635255 -771.44278895 442.55479402 C-757.91288377 442.43688776 -744.38300291 442.31649058 -730.85313824 442.19402687 C-638.5890279 441.35905075 -546.33815707 440.7382263 -454.06951135 440.99429619 C-451.2489256 441.00207005 -448.42833926 441.0096159 -445.60775292 441.01717418 C-399.33746822 441.1413963 -353.06736971 441.31212126 -306.79726887 441.49088573 C-295.77840268 441.53344451 -284.7595358 441.57581342 -273.74066671 441.61761415 C-269.81907007 441.63250714 -265.89747401 441.64753123 -261.97587895 441.66283798 C-245.79207764 441.72598264 -229.60831542 441.78406392 -213.4244224 441.81754422 C-207.43168319 441.83006227 -201.43894692 441.84391844 -195.44621137 441.85806608 C-193.96291259 441.86153818 -192.47961363 441.86493378 -190.9963145 441.86825228 C-171.89468784 441.91129959 -152.79658011 442.03722624 -133.69645854 442.28315935 C-132.97745412 442.29241123 -132.25844971 442.30166312 -131.51765728 442.31119537 C-130.80114921 442.3204261 -130.08464115 442.32965682 -129.34642072 442.33916727 C-120.30717893 442.45363863 -111.26757854 442.53095335 -102.22791654 442.60372686 C-94.47321883 442.66930448 -86.72113548 442.78166905 -78.9676156 442.93062592 C-74.25634019 443.00970775 -69.54557541 443.04316831 -64.83371425 443.06340218 C-62.67201989 443.08205607 -60.51039001 443.11974983 -58.34940648 443.17823601 C-46.84612947 444.013443 -46.84612947 444.013443 -36.77493095 439.58558655 C-34.49012389 436.8241775 -32.73328929 434.12709261 -31 431 C-29.55778599 429.2519455 -29.55778599 429.2519455 -28.25 427.90625 C-24.19728041 423.57209154 -20.28350876 419.18557149 -16.5625 414.5625 C-13.30450661 410.52028166 -9.91107019 406.67099571 -6.375 402.875 C-2.59012092 398.80999967 0.91792035 394.63484829 4.265625 390.203125 C6.90529537 386.8500302 9.80671524 383.74713239 12.68359375 380.59765625 C15.01866798 377.97906542 17.23504623 375.29323192 19.4375 372.5625 C23.29941675 367.78715598 27.37674224 363.26332315 31.53515625 358.74609375 C33.92707297 356.08124834 36.19254884 353.35168175 38.4375 350.5625 C41.65968768 346.56744191 45.00939232 342.75734793 48.5 339 C49.87993204 337.49550257 51.2577438 335.98909478 52.63476562 334.48193359 C53.98784014 333.01319927 55.36106085 331.56310862 56.734375 330.11328125 C57.56453125 329.18902344 58.3946875 328.26476562 59.25 327.3125 C59.99765625 326.50425781 60.7453125 325.69601562 61.515625 324.86328125 C64.95831842 318.22250684 61.29913139 309.64332977 59.4375 302.8125 C59.03724609 301.30913086 59.03724609 301.30913086 58.62890625 299.77539062 C57.75947918 296.51503911 56.8808799 293.25727451 56 290 C49.24529699 264.98913052 42.85719768 239.89058284 36.48539734 214.77975464 C34.15463213 205.59835809 31.80363927 196.42233535 29.4375 187.25 C26.84319259 177.19159521 24.26577438 167.12902272 21.703125 157.0625 C21.41353409 155.9251239 21.12394318 154.7877478 20.82557678 153.61590576 C19.38758619 147.96723808 17.95072725 142.31828545 16.51538086 136.66894531 C14.00492402 126.79746225 11.46971916 116.93548893 8.82495117 107.09912109 C7.48619169 102.06975949 6.24926599 97.01638086 5.02148438 91.95898438 C3.69081688 86.56014826 2.22650907 81.20436719 0.72265625 75.8515625 C-2.1221355 65.69977927 -4.74097486 55.49284433 -7.33935547 45.27563477 C-8.12860575 42.17332688 -8.92152413 39.07197261 -9.71484375 35.97070312 C-12.2583219 26.00541422 -14.77383371 16.04191949 -17 6 C-3.61214165 0 -3.61214165 0 0 0 Z " fill="#AEAEAE" transform="translate(1150,300)"/>
<path d="M0 0 C0.9949249 -0.00206575 1.98984979 -0.00413151 3.01492393 -0.00625986 C6.43824214 -0.00823696 9.86075655 0.01896409 13.28396606 0.0453949 C15.81832241 0.0501744 18.35268256 0.05318925 20.887043 0.05463219 C26.57340333 0.06085999 32.2595573 0.08258061 37.94583511 0.1133709 C46.7454497 0.16085443 55.54502762 0.18456498 64.3447427 0.20423494 C80.62236461 0.24137293 96.8998682 0.29954487 113.17739868 0.36479187 C132.79300773 0.44310409 152.40863421 0.50687742 172.02432251 0.56144714 C172.7057933 0.563347 173.38726409 0.56524685 174.08938551 0.56720427 C180.42772412 0.58487035 186.76606303 0.60242703 193.10440226 0.61986964 C209.47385142 0.66492724 225.84329612 0.71149294 242.21273804 0.7591095 C243.35488216 0.76243133 243.35488216 0.76243133 244.5200999 0.76582027 C296.9216812 0.91845078 349.32315652 1.103659 401.72464153 1.28586419 C426.7585681 1.37289024 451.79250321 1.45698831 476.82644653 1.53904724 C506.4050751 1.63601103 535.98369599 1.73498303 565.56230819 1.83682448 C568.75151879 1.84779978 571.94072941 1.85876999 575.12994003 1.86973763 C576.30645022 1.87378594 576.30645022 1.87378594 577.50672829 1.87791604 C588.99881693 1.91742629 600.49090954 1.95554999 611.98300552 1.99285698 C625.1206648 2.03551139 638.25831458 2.08042979 651.39595766 2.12781709 C658.01472917 2.15164231 664.63349953 2.17473387 671.2522831 2.19502258 C732.03342102 2.38601989 792.80873723 2.97881433 853.58914185 3.46897888 C853.58914185 91.90897888 853.58914185 180.34897888 853.58914185 271.46897888 C846.10019513 270.78816554 839.21436276 269.92281144 831.94851685 268.31663513 C829.81793142 267.85978922 827.68705581 267.40429523 825.55593872 266.94993591 C823.86150635 266.58729645 823.86150635 266.58729645 822.13284302 266.21733093 C815.88322043 264.89754756 809.61883739 263.65160129 803.35476685 262.40257263 C801.97197552 262.12630813 800.5891937 261.84999608 799.2064209 261.57363892 C795.5290917 260.83899335 791.85153701 260.10548212 788.17394257 259.37216568 C784.11835462 258.56325991 780.06298344 257.75326882 776.00759888 256.94334412 C774.29620401 256.60156053 772.58480874 256.25977894 770.87341309 255.91799927 C770.01030895 255.74562933 769.14720482 255.57325939 768.25794601 255.39566612 C765.58505045 254.86191917 762.91212638 254.32831519 760.23919678 253.79473877 C748.03126385 251.35754843 735.82439962 248.91505792 723.61813354 246.46953392 C674.21431606 236.5717812 624.79917238 226.73257598 575.3742981 216.94050598 C539.02054115 209.73784416 502.67464115 202.49709544 466.33624268 195.21736145 C436.95153726 189.33084927 407.55935095 183.48498423 378.15376854 177.70367241 C374.68426362 177.02150844 371.21480494 176.33910969 367.74539185 175.65647888 C367.07339375 175.5242606 366.40139565 175.39204231 365.70903397 175.25581741 C355.46767118 173.24004506 345.23023295 171.20509915 334.99539185 169.15647888 C333.97916748 168.95308144 333.97916748 168.95308144 332.94241333 168.74557495 C325.96989212 167.34970482 318.99796924 165.95087868 312.02664185 164.54905701 C300.43330396 162.22033815 288.83390309 159.9296981 277.22195435 157.69554138 C258.56018748 154.10081135 239.9293735 150.35226261 221.29592896 146.61399841 C210.22505611 144.39309056 199.15330784 142.1765549 188.08132935 139.96116638 C186.94149849 139.73309044 185.80166763 139.5050145 184.62729645 139.27002716 C159.78824266 134.30092435 134.9395402 129.38097775 110.08914185 124.46897888 C84.2041003 119.35242223 58.32152269 114.22422986 32.44851685 109.04710388 C31.3266095 108.8226207 30.20470215 108.59813751 29.04879761 108.36685181 C18.23386477 106.20258868 7.41934037 104.03629657 -3.39451599 101.86666107 C-29.3843669 96.65276098 -55.3880377 91.51585115 -81.41085815 86.46897888 C-80.66846257 83.11128669 -79.77156568 81.43658903 -77.41085815 78.90647888 C-74.54641045 75.75675082 -71.8253202 72.53997205 -69.16085815 69.21897888 C-65.43269683 64.62852174 -61.52126139 60.27391277 -57.49557495 55.94822693 C-54.52427945 52.73670123 -51.71153717 49.44306178 -48.97335815 46.03147888 C-45.13040337 41.2535655 -41.04254486 36.77902904 -36.85470581 32.30735779 C-32.93997472 28.10347751 -29.30617329 23.72408386 -25.7116394 19.24241638 C-22.64662213 15.54774361 -19.40790425 12.03072935 -16.12741089 8.52732849 C-13.41835182 5.66320432 -13.41835182 5.66320432 -11.35011101 2.33398342 C-8.11049126 -0.78160077 -4.31812469 -0.06011611 0 0 Z " fill="#BABABB" transform="translate(1146.4108581542969,742.5310211181641)"/>
<path d="M0 0 C44.20428813 -0.02475142 88.40769022 0.02257778 132.61173558 0.16899753 C137.15019283 0.1840173 141.68865125 0.19865774 146.22710991 0.21324348 C159.04664013 0.25449868 171.86616904 0.29611397 184.68569279 0.33933926 C185.49127926 0.34205531 186.29686574 0.34477135 187.12686392 0.34756971 C188.75659303 0.35306592 190.38632214 0.35856238 192.01605124 0.36405908 C192.82391107 0.36678336 193.6317709 0.36950763 194.46411133 0.37231445 C195.6775593 0.37640691 195.6775593 0.37640691 196.91552138 0.38058204 C209.07982404 0.4215382 221.24413241 0.46016715 233.40844727 0.49731445 C252.51319606 0.5557655 271.61793365 0.61709403 290.72265625 0.68359375 C291.88770104 0.68764832 291.88770104 0.68764832 293.07628208 0.6917848 C355.71971768 0.91072639 418.35925682 1.37632072 481 2 C480.05263689 3.27606056 479.10347472 4.5507856 478.15356445 5.82495117 C477.36101006 6.88996101 477.36101006 6.88996101 476.55244446 7.97648621 C474.5694537 10.56119005 472.41530716 12.93691127 470.1875 15.3125 C466.8290922 18.95203013 463.60769533 22.64425766 460.5 26.5 C457.44651321 30.28460334 454.29331699 33.92207537 451 37.5 C446.98025464 41.87170463 443.20011805 46.37786886 439.46875 50.99609375 C436.12732691 55.06184431 432.67904755 59.02982151 429.21948242 62.99511719 C425.37893733 67.39876131 421.56984417 71.82862546 417.76879883 76.26635742 C416.93531796 77.23911747 416.93531796 77.23911747 416.08499908 78.23152924 C414.72321076 79.820915 413.36158864 81.41044317 412 83 C410.12544853 82.62508971 408.25089707 82.25017938 406.37634563 81.87526894 C404.65379693 81.53075933 402.93124812 81.18625022 401.20869923 80.84174156 C396.21018558 79.84204122 391.2116739 78.84233109 386.21316528 77.84260559 C376.04970751 75.8098759 365.88623581 73.77721599 355.72270298 71.7448616 C349.96877271 70.59427287 344.21485246 69.44363403 338.4609375 68.29296875 C337.31720106 68.06424576 336.17346462 67.83552277 334.9950695 67.59986877 C321.41190316 64.88343815 307.8290685 62.16536576 294.24703407 59.44328117 C289.88459955 58.56905425 285.522069 57.69530657 281.15954113 56.8215456 C277.91110929 56.17086186 274.66277603 55.51969529 271.4145813 54.86782837 C258.2224679 52.22039729 245.02445177 49.60922479 231.8125 47.0625 C216.22323632 44.05668208 200.65421486 40.95387788 185.08797455 37.83128738 C181.14297107 37.04021929 177.19769465 36.25051467 173.25244141 35.46069336 C166.30735018 34.07018152 159.36236982 32.6791174 152.41748047 31.28759766 C134.51526866 27.70065112 116.61290252 24.11447738 98.70993519 20.53130341 C93.3238057 19.4532561 87.93775538 18.37481697 82.5519104 17.29534912 C55.05000019 11.78336092 27.53571658 6.34066962 0 1 C0 0.67 0 0.34 0 0 Z " fill="#BABABA" transform="translate(628,741)"/>
<path d="M0 0 C3.49854867 6.32748265 5.31797534 12.41397139 6.9375 19.4375 C8.59479794 26.34967046 10.28790688 33.20464968 12.375 40 C15.29307839 49.53118109 17.60443503 59.22471285 19.97021484 68.90429688 C21.87149911 76.6560757 23.9054241 84.35737691 26.06257629 92.04193115 C28.54350862 100.89602 30.86558768 109.79063673 33.1875 118.6875 C33.66492505 120.51197143 34.14238341 122.33643414 34.61987305 124.16088867 C37.01452998 133.32208261 39.38795349 142.48839546 41.7265625 151.6640625 C41.94387527 152.51665649 42.16118805 153.36925049 42.38508606 154.24768066 C43.23897273 157.5987135 44.09277519 160.94976774 44.94625854 164.30090332 C47.46916807 174.19469513 50.08013808 184.04617354 52.95654297 193.84423828 C55.07193447 201.09722361 56.88548682 208.41508001 58.69165039 215.75024414 C60.43765191 222.81654012 62.27835098 229.85112055 64.1875 236.875 C68.57495132 253.03204311 72.79762887 269.23197955 77.02346802 285.43190002 C78.25398748 290.14818993 79.48872848 294.86332089 80.7305603 299.5766449 C81.55204301 302.69627325 82.36934697 305.81699703 83.1875 308.9375 C83.47882813 310.03763428 83.77015625 311.13776855 84.0703125 312.27124023 C84.32941406 313.26325439 84.58851563 314.25526855 84.85546875 315.27734375 C85.07871826 316.12546631 85.30196777 316.97358887 85.53198242 317.84741211 C86 320 86 320 86 323 C83.69 323.99 81.38 324.98 79 326 C80.65 327.32 82.3 328.64 84 330 C82.50441868 335.02289577 79.50108277 337.96844981 75.9375 341.625 C71.10410877 346.69776678 66.55831302 351.88331299 62.17578125 357.35546875 C59.869683 360.15839248 57.45848469 362.83003275 55 365.5 C51.72581577 369.05670244 48.59357567 372.67161811 45.5625 376.4375 C41.90428985 380.97316443 38.05257035 385.2570117 34.08618164 389.51928711 C31.09573 392.75193975 28.26220993 396.06696766 25.5 399.5 C22.30066303 403.47631881 18.9739272 407.2664576 15.5 411 C11.29046211 415.52905703 7.32627132 420.20267965 3.4453125 425.015625 C-3.05665418 432.95093257 -9.8485655 440.66083514 -16.75 448.25 C-19.73863253 451.54292966 -22.58383605 454.91316769 -25.375 458.375 C-29.05636689 462.92860712 -32.92774473 467.23582516 -36.91357422 471.51904297 C-39.90412641 474.75176204 -42.73771685 478.06687666 -45.5 481.5 C-48.69932154 485.47629963 -52.02589136 489.26663848 -55.5 493 C-59.8304212 497.65492111 -63.89710041 502.46460601 -67.88671875 507.41796875 C-70.49227606 510.60146853 -73.23174963 513.64706062 -75.984375 516.703125 C-78.14519963 519.16546005 -80.19815911 521.69626998 -82.25 524.25 C-86.16350985 529.08116044 -90.30890874 533.62643324 -94.55541992 538.16088867 C-98.47740429 542.37241969 -102.11689319 546.76072919 -105.71875 551.25 C-107.79248091 553.74984 -109.92693598 556.14807409 -112.13696289 558.52587891 C-113.08667973 559.54960177 -114.02863909 560.58057682 -114.96264648 561.61865234 C-117.03321358 563.9186299 -119.09404105 566.08095053 -121.44140625 568.1015625 C-127.81436824 574.1895083 -127.75119456 580.73628525 -128 589.125 C-128.06034408 593.08528806 -128.06517302 597.039834 -128 601 C-137.23524302 606.65599847 -145.29984506 606.33553336 -155.625 605.375 C-157.10788101 605.26178069 -158.59095701 605.15108582 -160.07421875 605.04296875 C-170.78491482 604.21508518 -170.78491482 604.21508518 -172 603 C-172.08737645 601.14630389 -172.10698153 599.28932459 -172.09765625 597.43359375 C-172.09282227 595.7465332 -172.09282227 595.7465332 -172.08789062 594.02539062 C-172.07951172 592.84138672 -172.07113281 591.65738281 -172.0625 590.4375 C-172.05798828 589.24962891 -172.05347656 588.06175781 -172.04882812 586.83789062 C-172.03699675 583.89187774 -172.02051287 580.94596319 -172 578 C-169.9635505 577.15399724 -167.92056513 576.3237175 -165.875 575.5 C-164.73804688 575.0359375 -163.60109375 574.571875 -162.4296875 574.09375 C-159 573 -159 573 -155.8359375 573.14453125 C-152.85140338 573.29444686 -152.85140338 573.29444686 -150.796875 570.98046875 C-150.12140625 570.05878906 -149.4459375 569.13710938 -148.75 568.1875 C-145.64416557 564.11760623 -142.48596829 560.25120501 -139 556.5 C-135.70668301 552.92207537 -132.55348679 549.28460334 -129.5 545.5 C-125.66164586 540.74260332 -121.60377641 536.24216082 -117.46484375 531.74609375 C-115.07292703 529.08124834 -112.80745116 526.35168175 -110.5625 523.5625 C-107.34054925 519.56773566 -103.99322017 515.75468333 -100.5 512 C-96.28601245 507.4661005 -92.3177475 502.78759316 -88.43359375 497.96875 C-84.49752865 493.16712965 -80.4007652 488.50651471 -76.32421875 483.82421875 C-73.19707929 480.2323201 -70.09485548 476.61972001 -67 473 C-61.24286948 466.2716501 -55.44577948 459.57846113 -49.64111328 452.89111328 C-46.92578786 449.76214709 -44.21298505 446.63099539 -41.5 443.5 C-38.23954552 439.73718238 -34.97854943 435.97484206 -31.71484375 432.21484375 C-30.62232902 430.95578714 -29.52988087 429.69667275 -28.4375 428.4375 C-27.90157227 427.81979736 -27.36564453 427.20209473 -26.81347656 426.56567383 C-22.60203367 421.70646363 -18.42323747 416.81990123 -14.24902344 411.92871094 C-11.2825189 408.46350117 -8.26171768 405.05821583 -5.1875 401.6875 C-1.85338297 398.01817552 1.19350492 394.21590368 4.1953125 390.2734375 C6.86901121 386.9052716 9.78437049 383.7715944 12.68359375 380.59765625 C15.01866798 377.97906542 17.23504623 375.29323192 19.4375 372.5625 C23.29941675 367.78715598 27.37674224 363.26332315 31.53515625 358.74609375 C33.92707297 356.08124834 36.19254884 353.35168175 38.4375 350.5625 C41.65968768 346.56744191 45.00939232 342.75734793 48.5 339 C49.87993204 337.49550257 51.2577438 335.98909478 52.63476562 334.48193359 C53.98784014 333.01319927 55.36106085 331.56310862 56.734375 330.11328125 C57.56453125 329.18902344 58.3946875 328.26476562 59.25 327.3125 C59.99765625 326.50425781 60.7453125 325.69601562 61.515625 324.86328125 C64.95831842 318.22250684 61.29913139 309.64332977 59.4375 302.8125 C59.17066406 301.81025391 58.90382813 300.80800781 58.62890625 299.77539062 C57.75947918 296.51503911 56.8808799 293.25727451 56 290 C49.24529699 264.98913052 42.85719768 239.89058284 36.48539734 214.77975464 C34.15463213 205.59835809 31.80363927 196.42233535 29.4375 187.25 C26.84319259 177.19159521 24.26577438 167.12902272 21.703125 157.0625 C21.41353409 155.9251239 21.12394318 154.7877478 20.82557678 153.61590576 C19.38758619 147.96723808 17.95072725 142.31828545 16.51538086 136.66894531 C14.00492402 126.79746225 11.46971916 116.93548893 8.82495117 107.09912109 C7.48619169 102.06975949 6.24926599 97.01638086 5.02148438 91.95898438 C3.69081688 86.56014826 2.22650907 81.20436719 0.72265625 75.8515625 C-2.1221355 65.69977927 -4.74097486 55.49284433 -7.33935547 45.27563477 C-8.12860575 42.17332688 -8.92152413 39.07197261 -9.71484375 35.97070312 C-12.2583219 26.00541422 -14.77383371 16.04191949 -17 6 C-3.61214165 0 -3.61214165 0 0 0 Z " fill="#920101" transform="translate(1150,300)"/>
<path d="M0 0 C3.49854867 6.32748265 5.31797534 12.41397139 6.9375 19.4375 C8.59479794 26.34967046 10.28790688 33.20464968 12.375 40 C15.29307839 49.53118109 17.60443503 59.22471285 19.97021484 68.90429688 C21.87149911 76.6560757 23.9054241 84.35737691 26.06257629 92.04193115 C28.54350862 100.89602 30.86558768 109.79063673 33.1875 118.6875 C33.66492505 120.51197143 34.14238341 122.33643414 34.61987305 124.16088867 C37.01452998 133.32208261 39.38795349 142.48839546 41.7265625 151.6640625 C41.94387527 152.51665649 42.16118805 153.36925049 42.38508606 154.24768066 C43.23897273 157.5987135 44.09277519 160.94976774 44.94625854 164.30090332 C47.46916807 174.19469513 50.08013808 184.04617354 52.95654297 193.84423828 C55.07193447 201.09722361 56.88548682 208.41508001 58.69165039 215.75024414 C60.43765191 222.81654012 62.27835098 229.85112055 64.1875 236.875 C68.57495132 253.03204311 72.79762887 269.23197955 77.02346802 285.43190002 C78.25398748 290.14818993 79.48872848 294.86332089 80.7305603 299.5766449 C81.55204301 302.69627325 82.36934697 305.81699703 83.1875 308.9375 C83.47882813 310.03763428 83.77015625 311.13776855 84.0703125 312.27124023 C84.32941406 313.26325439 84.58851562 314.25526855 84.85546875 315.27734375 C85.07871826 316.12546631 85.30196777 316.97358887 85.53198242 317.84741211 C86 320 86 320 86 323 C81.91937402 325.04031299 79.38205064 325.34144407 75 324 C72.8016783 322.47769978 70.96952124 320.82884115 69 319 C67.35 319.66 65.7 320.32 64 321 C63.79955078 320.21802246 63.59910156 319.43604492 63.39257812 318.63037109 C59.78469292 304.56902712 56.15342066 290.51665658 52.375 276.5 C46.85998899 255.98359414 41.71049646 235.37150329 36.48542786 214.77987671 C34.15465351 205.5984392 31.80364974 196.42237596 29.4375 187.25 C26.84319259 177.19159521 24.26577438 167.12902272 21.703125 157.0625 C21.26873863 155.35643585 21.26873863 155.35643585 20.82557678 153.61590576 C19.38758619 147.96723808 17.95072725 142.31828545 16.51538086 136.66894531 C14.00492402 126.79746225 11.46971916 116.93548893 8.82495117 107.09912109 C7.48619169 102.06975949 6.24926599 97.01638086 5.02148438 91.95898438 C3.69081688 86.56014826 2.22650907 81.20436719 0.72265625 75.8515625 C-2.1221355 65.69977927 -4.74097486 55.49284433 -7.33935547 45.27563477 C-8.12860575 42.17332688 -8.92152413 39.07197261 -9.71484375 35.97070312 C-12.2583219 26.00541422 -14.77383371 16.04191949 -17 6 C-3.61214165 0 -3.61214165 0 0 0 Z " fill="#009201" transform="translate(1150,300)"/>
<path d="M0 0 C4.19617334 4.41136171 5.28133099 7.79466297 5.13671875 13.890625 C4.6865266 20.83644669 2.18138258 24.69826613 -2.79296875 29.33203125 C-6.09100326 31.82452812 -8.92241153 32.6531352 -13 33 C-13.73347656 33.06832031 -14.46695312 33.13664062 -15.22265625 33.20703125 C-21.44051085 33.49499364 -26.86060671 32.5183394 -31.796875 28.55859375 C-35.44408857 24.81585792 -36.71322322 21.58236807 -37.08984375 16.40625 C-36.77954052 8.09552002 -34.77447951 4.75237556 -28.75390625 -0.8828125 C-20.25137717 -7.41950861 -8.54766103 -5.82091848 0 0 Z " fill="#009401" transform="translate(1541,388)"/>
<path d="M0 0 C-0.66 1.32 -1.32 2.64 -2 4 C-1.04738281 3.98839844 -0.09476563 3.97679687 0.88671875 3.96484375 C2.14097656 3.95582031 3.39523437 3.94679688 4.6875 3.9375 C5.92886719 3.92589844 7.17023437 3.91429687 8.44921875 3.90234375 C11.46235454 3.98521327 14.08275339 4.29160551 17 5 C17 5.66 17 6.32 17 7 C21.54170996 5.09115308 21.54170996 5.09115308 26 3 C26 10.92 26 18.84 26 27 C16.4388017 32.44201304 8.91501901 32.35552183 -1.625 31.375 C-3.10788101 31.26178069 -4.59095701 31.15108582 -6.07421875 31.04296875 C-16.78491482 30.21508518 -16.78491482 30.21508518 -18 29 C-18.08737645 27.14630389 -18.10698153 25.28932459 -18.09765625 23.43359375 C-18.09443359 22.30888672 -18.09121094 21.18417969 -18.08789062 20.02539062 C-18.07951172 18.84138672 -18.07113281 17.65738281 -18.0625 16.4375 C-18.05798828 15.24962891 -18.05347656 14.06175781 -18.04882812 12.83789062 C-18.03699675 9.89187774 -18.02051287 6.94596319 -18 4 C-15.94409546 3.13007846 -13.87994664 2.27962311 -11.8125 1.4375 C-10.66394531 0.96183594 -9.51539063 0.48617187 -8.33203125 -0.00390625 C-4.94860873 -1.01536316 -3.31583059 -1.04283184 0 0 Z " fill="#010101" transform="translate(996,874)"/>
<path d="M0 0 C2.70373951 2.32202962 3.5601117 4.14544628 4.39453125 7.5859375 C4.62446777 8.5049585 4.8544043 9.42397949 5.09130859 10.37084961 C5.44829834 11.85790405 5.44829834 11.85790405 5.8125 13.375 C6.34025852 15.48882908 6.87025051 17.60210164 7.40234375 19.71484375 C7.66901855 20.77815918 7.93569336 21.84147461 8.21044922 22.93701172 C9.33509263 27.29996048 10.60052067 31.61646169 11.875 35.9375 C14.88737136 46.25255935 17.47095347 56.67039348 20.02099609 67.10717773 C21.90786904 74.7868184 23.92243086 82.415482 26.05941772 90.02929688 C28.54110538 98.88767867 30.86449208 107.7864387 33.1875 116.6875 C33.66492505 118.51197143 34.14238341 120.33643414 34.61987305 122.16088867 C37.01452998 131.32208261 39.38795349 140.48839546 41.7265625 149.6640625 C41.94387527 150.51665649 42.16118805 151.36925049 42.38508606 152.24768066 C43.23897273 155.5987135 44.09277519 158.94976774 44.94625854 162.30090332 C47.46916807 172.19469513 50.08013808 182.04617354 52.95654297 191.84423828 C55.07193447 199.09722361 56.88548682 206.41508001 58.69165039 213.75024414 C60.43765191 220.81654012 62.27835098 227.85112055 64.1875 234.875 C68.80923067 251.89479037 73.24955079 268.96207231 77.70166016 286.02685547 C78.70868973 289.88606648 79.7187541 293.74447116 80.7305603 297.60243225 C81.55149118 300.73444511 82.3693093 303.86727038 83.1875 307 C83.47882813 308.10851318 83.77015625 309.21702637 84.0703125 310.35913086 C84.32941406 311.35436768 84.58851562 312.34960449 84.85546875 313.375 C85.07871826 314.22835938 85.30196777 315.08171875 85.53198242 315.9609375 C86 318 86 318 86 320 C85.01 319.67 84.02 319.34 83 319 C82.00439453 316.32641602 82.00439453 316.32641602 81.1328125 312.75390625 C80.89319794 311.79726074 80.89319794 311.79726074 80.64874268 310.82128906 C80.12923462 308.73770667 79.62732377 306.65028502 79.125 304.5625 C78.5918425 302.40858888 78.05424782 300.25581412 77.51663208 298.10301208 C77.16228553 296.68214152 76.80947728 295.26088643 76.45822144 293.83924866 C75.19150046 288.71785408 73.82998748 283.63309492 72.375 278.5625 C70.09636967 270.560305 68.0975122 262.49329246 66.14208984 254.40649414 C64.89109114 249.29574859 63.52748758 244.30239421 61.75048828 239.34790039 C60.66187334 235.94217173 59.84651478 232.4717818 59 229 C58.69175293 227.76918701 58.38350586 226.53837402 58.06591797 225.27026367 C56.38977443 218.57474741 54.7210585 211.87760724 53.0703125 205.17578125 C49.94318226 192.50617686 46.77517124 179.87161675 43.08740234 167.35058594 C41.02059213 160.26560041 39.28944252 153.11759243 37.64770508 145.9230957 C37.45974365 145.10413818 37.27178223 144.28518066 37.078125 143.44140625 C36.91731445 142.72670166 36.75650391 142.01199707 36.59082031 141.27563477 C36.01002533 138.9210237 36.01002533 138.9210237 35.09790039 136.36206055 C33.63448638 131.88070089 32.50452168 127.33619511 31.35546875 122.765625 C31.10380447 121.7735907 30.8521402 120.7815564 30.59284973 119.75946045 C29.78894612 116.59017282 28.98789107 113.4201764 28.1875 110.25 C25.14123185 98.18681562 22.08534597 86.13553031 18.71232605 74.15899658 C16.83470454 67.47318986 15.14932534 60.74559918 13.5 54 C11.36098579 45.34155901 9.15238396 36.71726691 6.71191406 28.13891602 C5.0885068 22.41144273 3.63356391 16.64960174 2.25512695 10.85839844 C1.67347988 7.65853435 1.67347988 7.65853435 0 5 C-0.04063832 3.33382885 -0.042721 1.66611905 0 0 Z " fill="#07D10B" transform="translate(1150,302)"/>
<path d="M0 0 C3.70853006 2.71289022 5.11793097 5.69755117 5.89453125 10.0546875 C6.37616894 15.1954326 5.65688001 18.78144465 2.5859375 22.91015625 C-0.45216728 26.12996586 -3.25454726 27.41097126 -7.609375 28.078125 C-12.93051698 28.12321942 -16.62931266 26.02704975 -20.8515625 22.97265625 C-24.42477372 17.99181637 -24.23853265 13.26079059 -23.3515625 7.34765625 C-21.47981495 3.11587918 -19.72875848 1.69164952 -15.9140625 -0.90234375 C-10.83881269 -2.6220565 -4.85192408 -2.28733564 0 0 Z " fill="#010197" transform="translate(828.9140625,606.90234375)"/>
<path d="M0 0 C3.20839057 -0.02708773 6.41655003 -0.04688168 9.625 -0.0625 C10.98044922 -0.07506836 10.98044922 -0.07506836 12.36328125 -0.08789062 C17.02904289 -0.10491895 21.41013285 0.03170577 26 1 C26.0272616 3.04159095 26.04651345 5.08328963 26.0625 7.125 C26.07410156 8.26195312 26.08570313 9.39890625 26.09765625 10.5703125 C26.005327 13.8129156 25.61389906 16.81932612 25 20 C21.97910522 20.02716089 18.95845871 20.04691657 15.9375 20.0625 C15.08994141 20.07087891 14.24238281 20.07925781 13.36914062 20.08789062 C12.53447266 20.09111328 11.69980469 20.09433594 10.83984375 20.09765625 C9.70083618 20.10551147 9.70083618 20.10551147 8.53881836 20.11352539 C5.34081638 19.97052405 2.16902394 19.45271771 -1 19 C-0.67 12.73 -0.34 6.46 0 0 Z " fill="#930507" transform="translate(762,609)"/>
<path d="M0 0 C3.63 0.33 7.26 0.66 11 1 C11.02717692 3.06242617 11.0464758 5.12495703 11.0625 7.1875 C11.07410156 8.33605469 11.08570313 9.48460937 11.09765625 10.66796875 C11 14 11 14 10 19 C6.37 18.67 2.74 18.34 -1 18 C-0.505 9.09 -0.505 9.09 0 0 Z " fill="#C10608" transform="translate(777,609)"/>
<path d="M0 0 C9.65175485 0.20982076 9.65175485 0.20982076 13.5 3.0625 C17.48633161 7.74643964 18.07674096 11.69777106 17.875 17.75 C16.91520846 21.31494 15.83880258 22.71064308 13 25 C11.48578999 23.48578999 11.78690144 22.07527232 11.68359375 19.96484375 C11.62075195 18.75151367 11.62075195 18.75151367 11.55664062 17.51367188 C11.51732422 16.66353516 11.47800781 15.81339844 11.4375 14.9375 C11.39431641 14.08349609 11.35113281 13.22949219 11.30664062 12.34960938 C11.20023298 10.23327963 11.09958269 8.11666187 11 6 C8.36 5.01 5.72 4.02 3 3 C3 2.34 3 1.68 3 1 C2.01 0.67 1.02 0.34 0 0 Z " fill="#0202BC" transform="translate(817,605)"/>
<path d="M0 0 C6.25578789 1.90854546 9.29969809 3.56518157 13 9 C13 9.66 13 10.32 13 11 C12.34 11 11.68 11 11 11 C11 10.34 11 9.68 11 9 C10.29875 8.7525 9.5975 8.505 8.875 8.25 C5.58713526 6.82049359 2.84454057 5.18301951 0 3 C0 2.01 0 1.02 0 0 Z " fill="#06B30A" transform="translate(1532,384)"/>
<path d="M0 0 C0.99 0.33 1.98 0.66 3 1 C3.984375 3.546875 3.984375 3.546875 4.75 6.75 C5.01296875 7.79671875 5.2759375 8.8434375 5.546875 9.921875 C5.99727021 12.98145625 5.8108453 15.0415104 5 18 C2.91648385 14.41272872 2.19858621 10.79305958 1.375 6.75 C1.11460938 5.48671875 0.85421875 4.2234375 0.5859375 2.921875 C0.39257812 1.95765625 0.19921875 0.9934375 0 0 Z " fill="#02D604" transform="translate(1166,364)"/>
<path d="M0 0 C3.7395549 2.71967629 4.26900833 6.68126758 5 11 C5.125 14 5.125 14 5 16 C4.34 16 3.68 16 3 16 C2.49411853 14.08487728 1.99551609 12.16783078 1.5 10.25 C1.2215625 9.18265625 0.943125 8.1153125 0.65625 7.015625 C0 4 0 4 0 0 Z " fill="#02C904" transform="translate(1216,552)"/>
<path d="M0 0 C0.99 0.495 0.99 0.495 2 1 C3.8116283 6.53023377 4.18182005 10.32726378 3 16 C0.65229357 12.47844036 0.62330386 10.49228157 0.375 6.3125 C0.30023437 5.13300781 0.22546875 3.95351563 0.1484375 2.73828125 C0.09945312 1.83464844 0.05046875 0.93101562 0 0 Z " fill="#0D0ED0" transform="translate(831,610)"/>
<path d="M0 0 C2.29633824 3.44450737 2.54016485 5.93812283 3 10 C2.01 9.67 1.02 9.34 0 9 C-1.125 3.375 -1.125 3.375 0 0 Z " fill="#11C919" transform="translate(1226,585)"/>
<path d="M0 0 C1.88391785 3.26545761 2.49287967 6.28111761 3 10 C2.01 9.67 1.02 9.34 0 9 C-1.125 3.375 -1.125 3.375 0 0 Z " fill="#13D61C" transform="translate(1189,444)"/>
<path d="M0 0 C1.88391785 3.26545761 2.49287967 6.28111761 3 10 C2.01 9.67 1.02 9.34 0 9 C-1.125 3.375 -1.125 3.375 0 0 Z " fill="#14D51D" transform="translate(1174,387)"/>
</svg>
